<mxfile host="app.diagrams.net" agent="Mozilla/5.0 (Macintosh; Intel Mac OS X 10_15_7) AppleWebKit/537.36 (KHTML, like Gecko) Chrome/140.0.0.0 Safari/537.36" version="28.2.3">
  <diagram name="Page-1" id="jZduB9S6t1IZREcf_3mA">
    <mxGraphModel dx="1018" dy="633" grid="0" gridSize="10" guides="1" tooltips="1" connect="1" arrows="1" fold="1" page="1" pageScale="1" pageWidth="850" pageHeight="1100" math="0" shadow="0">
      <root>
        <mxCell id="0" />
        <mxCell id="1" parent="0" />
        <mxCell id="F8s0xCzP0n8E7-uNUlLd-16" style="edgeStyle=orthogonalEdgeStyle;rounded=0;orthogonalLoop=1;jettySize=auto;html=1;entryX=0;entryY=0.5;entryDx=0;entryDy=0;endArrow=classic;endFill=1;startArrow=classic;startFill=1;" parent="1" source="F8s0xCzP0n8E7-uNUlLd-1" target="F8s0xCzP0n8E7-uNUlLd-3" edge="1">
          <mxGeometry relative="1" as="geometry" />
        </mxCell>
        <mxCell id="F8s0xCzP0n8E7-uNUlLd-1" value="Frontend client" style="rounded=0;whiteSpace=wrap;html=1;" parent="1" vertex="1">
          <mxGeometry x="180" y="240" width="140" height="90" as="geometry" />
        </mxCell>
        <mxCell id="F8s0xCzP0n8E7-uNUlLd-17" style="edgeStyle=orthogonalEdgeStyle;rounded=0;orthogonalLoop=1;jettySize=auto;html=1;endArrow=classic;endFill=1;startArrow=classic;startFill=1;" parent="1" source="F8s0xCzP0n8E7-uNUlLd-3" target="F8s0xCzP0n8E7-uNUlLd-6" edge="1">
          <mxGeometry relative="1" as="geometry" />
        </mxCell>
        <mxCell id="F8s0xCzP0n8E7-uNUlLd-25" style="rounded=0;orthogonalLoop=1;jettySize=auto;html=1;entryX=0.5;entryY=0;entryDx=0;entryDy=0;" parent="1" source="F8s0xCzP0n8E7-uNUlLd-3" target="F8s0xCzP0n8E7-uNUlLd-24" edge="1">
          <mxGeometry relative="1" as="geometry" />
        </mxCell>
        <mxCell id="F8s0xCzP0n8E7-uNUlLd-29" style="rounded=0;orthogonalLoop=1;jettySize=auto;html=1;entryX=0.5;entryY=0;entryDx=0;entryDy=0;endArrow=classic;endFill=1;startArrow=classic;startFill=1;" parent="1" source="F8s0xCzP0n8E7-uNUlLd-3" target="F8s0xCzP0n8E7-uNUlLd-28" edge="1">
          <mxGeometry relative="1" as="geometry" />
        </mxCell>
        <mxCell id="F8s0xCzP0n8E7-uNUlLd-3" value="Realtime game server" style="rounded=0;whiteSpace=wrap;html=1;" parent="1" vertex="1">
          <mxGeometry x="350" y="240" width="140" height="90" as="geometry" />
        </mxCell>
        <mxCell id="F8s0xCzP0n8E7-uNUlLd-5" value="PostgreSQL DB" style="rounded=0;whiteSpace=wrap;html=1;" parent="1" vertex="1">
          <mxGeometry x="670" y="240" width="140" height="90" as="geometry" />
        </mxCell>
        <mxCell id="F8s0xCzP0n8E7-uNUlLd-18" style="edgeStyle=orthogonalEdgeStyle;rounded=0;orthogonalLoop=1;jettySize=auto;html=1;entryX=0;entryY=0.5;entryDx=0;entryDy=0;endArrow=classic;endFill=1;startArrow=classic;startFill=1;" parent="1" source="F8s0xCzP0n8E7-uNUlLd-6" target="F8s0xCzP0n8E7-uNUlLd-5" edge="1">
          <mxGeometry relative="1" as="geometry" />
        </mxCell>
        <mxCell id="F8s0xCzP0n8E7-uNUlLd-6" value="Database Layer" style="rounded=0;whiteSpace=wrap;html=1;" parent="1" vertex="1">
          <mxGeometry x="520" y="255" width="120" height="60" as="geometry" />
        </mxCell>
        <mxCell id="F8s0xCzP0n8E7-uNUlLd-22" style="edgeStyle=orthogonalEdgeStyle;rounded=0;orthogonalLoop=1;jettySize=auto;html=1;entryX=0;entryY=0.5;entryDx=0;entryDy=0;endArrow=classic;endFill=1;startArrow=classic;startFill=1;" parent="1" source="F8s0xCzP0n8E7-uNUlLd-21" target="F8s0xCzP0n8E7-uNUlLd-1" edge="1">
          <mxGeometry relative="1" as="geometry" />
        </mxCell>
        <mxCell id="F8s0xCzP0n8E7-uNUlLd-21" value="Player/browser interaction" style="ellipse;whiteSpace=wrap;html=1;" parent="1" vertex="1">
          <mxGeometry x="33" y="245" width="120" height="80" as="geometry" />
        </mxCell>
        <mxCell id="F8s0xCzP0n8E7-uNUlLd-23" value="&lt;p style=&quot;margin-top: 0px;&quot;&gt;&lt;font&gt;&lt;font style=&quot;&quot;&gt;&lt;b style=&quot;&quot;&gt;D1:&amp;nbsp;&lt;/b&gt;&lt;/font&gt;&lt;/font&gt;&lt;span style=&quot;background-color: transparent; color: light-dark(rgb(0, 0, 0), rgb(255, 255, 255));&quot;&gt;The D1 diagram presents the high-level modular design of Pixel Coliseum, showing several of the modules. The player enters the system through the &lt;/span&gt;&lt;span style=&quot;background-color: transparent; color: light-dark(rgb(0, 0, 0), rgb(255, 255, 255));&quot; data-end=&quot;297&quot; data-start=&quot;278&quot;&gt;Frontend Client&lt;/span&gt;&lt;span style=&quot;background-color: transparent; color: light-dark(rgb(0, 0, 0), rgb(255, 255, 255));&quot;&gt;, which provides both input handling and visual output. The &lt;/span&gt;&lt;span style=&quot;background-color: transparent; color: light-dark(rgb(0, 0, 0), rgb(255, 255, 255));&quot; data-end=&quot;381&quot; data-start=&quot;357&quot;&gt;Realtime Game Server&lt;/span&gt;&lt;span style=&quot;background-color: transparent; color: light-dark(rgb(0, 0, 0), rgb(255, 255, 255));&quot;&gt; is the central authority, processing gameplay actions, managing rooms, and coordinating communication with other subsystems. The &lt;/span&gt;&lt;span style=&quot;background-color: transparent; color: light-dark(rgb(0, 0, 0), rgb(255, 255, 255));&quot; data-is-only-node=&quot;&quot; data-end=&quot;524&quot; data-start=&quot;511&quot;&gt;AI Module&lt;/span&gt;&lt;span style=&quot;background-color: transparent; color: light-dark(rgb(0, 0, 0), rgb(255, 255, 255));&quot;&gt; connects to the server to provide automated opponents when needed, while the &lt;/span&gt;&lt;span style=&quot;background-color: transparent; color: light-dark(rgb(0, 0, 0), rgb(255, 255, 255));&quot; data-end=&quot;620&quot; data-start=&quot;602&quot;&gt;Metrics Output&lt;/span&gt;&lt;span style=&quot;background-color: transparent; color: light-dark(rgb(0, 0, 0), rgb(255, 255, 255));&quot;&gt; module reports performance and gameplay statistics for evaluation and tuning. For persistent data, the &lt;/span&gt;&lt;span style=&quot;background-color: transparent; color: light-dark(rgb(0, 0, 0), rgb(255, 255, 255));&quot; data-end=&quot;748&quot; data-start=&quot;724&quot;&gt;Realtime Game Server&lt;/span&gt;&lt;span style=&quot;background-color: transparent; color: light-dark(rgb(0, 0, 0), rgb(255, 255, 255));&quot;&gt; communicates with the Database&amp;nbsp;&lt;/span&gt;&lt;span style=&quot;background-color: transparent; color: light-dark(rgb(0, 0, 0), rgb(255, 255, 255));&quot; data-end=&quot;784&quot; data-start=&quot;771&quot;&gt;Layer&lt;/span&gt;&lt;span style=&quot;background-color: transparent; color: light-dark(rgb(0, 0, 0), rgb(255, 255, 255));&quot;&gt;, which manages structured access to the &lt;/span&gt;&lt;span style=&quot;background-color: transparent; color: light-dark(rgb(0, 0, 0), rgb(255, 255, 255));&quot; data-end=&quot;848&quot; data-start=&quot;825&quot;&gt;PostgreSQL Database&lt;/span&gt;&lt;span style=&quot;background-color: transparent; color: light-dark(rgb(0, 0, 0), rgb(255, 255, 255));&quot;&gt;. This database will store long-term information about matches, players, chat logs, etc.&lt;/span&gt;&lt;/p&gt;" style="text;html=1;whiteSpace=wrap;overflow=hidden;rounded=0;" parent="1" vertex="1">
          <mxGeometry x="33" y="130" width="760" height="150" as="geometry" />
        </mxCell>
        <mxCell id="F8s0xCzP0n8E7-uNUlLd-24" value="Metrics output" style="rounded=0;whiteSpace=wrap;html=1;" parent="1" vertex="1">
          <mxGeometry x="450" y="360" width="120" height="60" as="geometry" />
        </mxCell>
        <mxCell id="F8s0xCzP0n8E7-uNUlLd-28" value="AI module" style="rounded=0;whiteSpace=wrap;html=1;" parent="1" vertex="1">
          <mxGeometry x="312" y="360" width="120" height="60" as="geometry" />
        </mxCell>
      </root>
    </mxGraphModel>
  </diagram>
</mxfile>
